<?xml version="1.0" standalone="no"?>
<!DOCTYPE svg PUBLIC "-//W3C//DTD SVG 20010904//EN"
 "http://www.w3.org/TR/2001/REC-SVG-20010904/DTD/svg10.dtd">
<svg version="1.0" xmlns="http://www.w3.org/2000/svg"
 width="700.000000pt" height="700.000000pt" viewBox="0 0 700.000000 700.000000"
 preserveAspectRatio="xMidYMid meet">
<metadata>
Created by potrace 1.11, written by Peter Selinger 2001-2013
</metadata>
<g transform="translate(0.000000,700.000000) scale(0.100000,-0.100000)"
fill="#000000" stroke="none">
<path d="M5399 6708 c-4 -9 -3 -638 1 -639 34 -7 310 -2 311 6 1 6 3 151 3
323 l2 312 -158 0 c-87 0 -159 -1 -159 -2z"/>
<path d="M3897 6474 c-1 -1 -34 -4 -74 -7 -180 -15 -370 -91 -531 -214 -240
-184 -383 -463 -405 -793 l-2 -35 -187 0 -188 0 0 -205 0 -205 -78 -23 c-215
-66 -458 -194 -662 -352 -79 -60 -289 -262 -335 -320 -11 -14 -36 -46 -56 -70
-52 -64 -160 -232 -208 -322 -121 -228 -221 -541 -246 -768 -3 -30 -8 -77 -12
-105 -8 -70 -8 -339 1 -405 4 -30 9 -75 12 -100 4 -37 16 -94 49 -240 42 -187
172 -484 287 -656 137 -203 323 -409 490 -543 182 -145 461 -301 663 -371 105
-36 289 -85 358 -95 27 -3 59 -8 70 -11 93 -18 398 -24 542 -10 184 19 491 98
642 167 298 135 493 268 709 483 213 212 348 411 484 710 37 83 100 284 125
401 215 1011 -277 2027 -1205 2488 -74 37 -182 84 -240 105 l-105 38 -2 39
c-1 22 -2 114 -2 205 l-1 165 -192 0 c-106 -1 -198 1 -205 3 -37 12 38 245
103 318 104 117 176 169 281 205 78 27 225 32 303 10 150 -43 289 -158 353
-292 38 -80 53 -148 61 -277 14 -226 106 -407 277 -542 89 -70 219 -126 334
-145 63 -10 195 -8 250 4 28 6 60 12 71 15 42 9 130 50 194 91 145 93 245 226
300 400 18 58 23 103 27 257 l6 187 -249 -2 -249 -2 -1 -135 c-1 -150 -10
-182 -65 -245 -73 -83 -193 -104 -285 -50 -80 47 -108 103 -118 240 -9 115
-16 161 -36 235 -111 411 -472 723 -885 765 -70 7 -164 12 -168 9z"/>
<path d="M6237 6180 l-229 -229 117 -117 116 -117 234 233 234 234 -113 113
c-63 62 -118 113 -122 113 -5 -1 -112 -104 -237 -230z"/>
<path d="M6363 5414 c-9 -25 -8 -304 2 -307 6 -2 150 -3 320 -3 l310 1 3 160
2 160 -316 0 c-224 0 -318 -3 -321 -11z"/>
</g>
</svg>
